<?xml version="1.0" encoding="UTF-8"?>
<svg width="160" height="160" viewBox="0 0 160 160" fill="none" xmlns="http://www.w3.org/2000/svg">
  <rect width="160" height="160" rx="32" fill="#F5F5F5"/>
  <!-- Large QR squares -->
  <rect x="16" y="16" width="40" height="40" rx="6" fill="#222"/>
  <rect x="16" y="104" width="40" height="40" rx="6" fill="#222"/>
  <rect x="104" y="16" width="40" height="40" rx="6" fill="#222"/>
  <!-- Small white squares inside -->
  <rect x="26" y="26" width="20" height="20" rx="3" fill="#F5F5F5"/>
  <rect x="26" y="114" width="20" height="20" rx="3" fill="#F5F5F5"/>
  <rect x="114" y="26" width="20" height="20" rx="3" fill="#F5F5F5"/>
  <!-- Random QR blocks -->
  <rect x="70" y="16" width="12" height="12" fill="#222"/>
  <rect x="90" y="44" width="8" height="8" fill="#222"/>
  <rect x="60" y="60" width="12" height="12" fill="#222"/>
  <rect x="80" y="80" width="8" height="8" fill="#222"/>
  <rect x="100" y="100" width="12" height="12" fill="#222"/>
  <rect x="120" y="120" width="8" height="8" fill="#222"/>
  <rect x="44" y="80" width="8" height="8" fill="#222"/>
  <rect x="80" y="120" width="8" height="8" fill="#222"/>
  <rect x="60" y="100" width="8" height="8" fill="#222"/>
  <rect x="100" y="60" width="8" height="8" fill="#222"/>
</svg>
